<?xml version="1.0" standalone="no"?>
<!DOCTYPE svg PUBLIC "-//W3C//DTD SVG 1.1//EN"
  "http://www.w3.org/Graphics/SVG/1.1/DTD/svg11.dtd">
<svg width="204mm" height="166.99999999999997mm" viewBox="-79.7760009765625 -76.99999999999999 204 166.99999999999997" xmlns="http://www.w3.org/2000/svg" version="1.1">
	<title>svgOutput</title>
	<desc>made with tinkercad</desc>
<path d="M 123.2239990234375 88.99999999999999 L -68.77899932861328 88.99999999999999 L -70.04399871826172 88.99999999999999 L -70.7750015258789 88.99999999999999 L -75.77899932861328 88.99999999999999 L -78.7760009765625 88.99999999999999 L -78.7760009765625 -75.99999999999999 L -75.77899932861328 -75.99999999999999 L -70.7750015258789 -75.99999999999999 L -69.63400268554688 -75.99999999999999 L -68.77899932861328 -75.99999999999999 L -67.1719970703125 -75.99999999999999 L -65.77400207519531 -75.99999999999999 L -65.7699966430664 -75.99999999999999 L -60.77399826049805 -75.99999999999999 L -53.183998107910156 -75.99999999999999 L -44.62799835205078 -75.99999999999999 L -43.17900085449219 -75.99999999999999 L -42.939998626708984 -75.99999999999999 L -42.87799835205078 -75.99999999999999 L -42.37300109863281 -75.99999999999999 L -40.685001373291016 -75.99999999999999 L -40.62300109863281 -75.99999999999999 L 1.2209999561309814 -75.99999999999999 L 6.872000217437744 -75.99999999999999 L 8.871999740600586 -75.99999999999999 L 9.126999855041504 -75.99999999999999 L 11.126999855041504 -75.99999999999999 L 11.22599983215332 -75.99999999999999 L 15.121999740600586 -75.99999999999999 L 17.37700080871582 -75.99999999999999 L 22.22100067138672 -75.99999999999999 L 26.375999450683594 -75.99999999999999 L 28.680999755859375 -75.99999999999999 L 103.67400360107422 -75.99999999999999 L 105.97899627685547 -75.99999999999999 L 110.22100067138672 -75.99999999999999 L 111.0739974975586 -75.99999999999999 L 113.53600311279297 -75.99999999999999 L 115.22599792480469 -75.99999999999999 L 123.2239990234375 -75.99999999999999 L 123.2239990234375 41.25600051879882 L 123.2239990234375 75.9980010986328 L 123.2239990234375 76.9980010986328 L 123.2239990234375 78.30300140380858 L 123.2239990234375 82.00299835205077 L 123.2239990234375 86.00299835205077 L 123.2239990234375 88.99999999999999 M -66.01300048828125 41.06000137329101 L -64.7760009765625 41.25600051879882 L -63.53900146484375 41.06000137329101 L -63.343040466308594 40.95999908447265 L -62.42399978637695 40.49100112915038 L -61.53799819946289 39.605998992919915 L -60.970001220703125 38.49000167846679 L -60.77399826049805 37.252998352050774 L -60.970001220703125 36.015998840332024 L -61.53799819946289 34.90100097656249 L -62.42399978637695 34.01499938964843 L -63.53900146484375 33.4469985961914 L -64.7760009765625 33.25099945068359 L -65.53600311279297 33.37142181396484 L -66.01300048828125 33.4469985961914 L -67.12899780273438 34.01499938964843 L -68.01399993896484 34.90100097656249 L -68.58300018310547 36.015998840332024 L -68.77899932861328 37.252998352050774 L -68.58300018310547 38.49000167846679 L -68.01399993896484 39.605998992919915 L -67.12899780273438 40.49100112915038 L -66.20913696289062 40.95999908447265 L -66.01300048828125 41.06000137329101 M -67.68000030517578 -65.26300048828124 L -67.58399963378906 -65.35370635986327 L -67.40799713134766 -65.51999664306639 L -67.23300170898438 -65.84400177001952 L -67.1719970703125 -66.20300292968749 L -67.23300170898438 -66.56199645996092 L -67.40799713134766 -66.88700103759764 L -67.58399963378906 -67.05329132080077 L -67.68000030517578 -67.1439971923828 L -68.02300262451172 -67.30899810791014 L -68.40299987792969 -67.36599731445311 L -68.77899932861328 -67.3097457885742 L -68.78399658203125 -67.30899810791014 L -69.12699890136719 -67.1439971923828 L -69.39900207519531 -66.88700103759764 L -69.5739974975586 -66.56199645996092 L -69.63200378417969 -66.21496582031249 L -69.63400268554688 -66.20300292968749 L -69.63200378417969 -66.19103240966795 L -69.5739974975586 -65.84400177001952 L -69.40763854980469 -65.53600311279295 L -69.39900207519531 -65.51999664306639 L -69.12699890136719 -65.26300048828124 L -68.78399658203125 -65.0970001220703 L -68.77899932861328 -65.09625244140624 L -68.40299987792969 -65.04000091552733 L -68.02300262451172 -65.0970001220703 L -67.68000030517578 -65.26300048828124 M 111.92400360107422 -65.0970001220703 L 112.30500030517578 -65.04000091552733 L 112.63999938964844 -65.09024810791014 L 112.68499755859375 -65.0970001220703 L 113.02799987792969 -65.26300048828124 L 113.3010025024414 -65.51999664306639 L 113.4749984741211 -65.84400177001952 L 113.53600311279297 -66.20300292968749 L 113.4749984741211 -66.56199645996092 L 113.3010025024414 -66.88700103759764 L 113.02799987792969 -67.1439971923828 L 112.68499755859375 -67.30899810791014 L 112.63999938964844 -67.3157501220703 L 112.30500030517578 -67.36599731445311 L 111.92400360107422 -67.30899810791014 L 111.58100128173828 -67.1439971923828 L 111.30899810791016 -66.88700103759764 L 111.13400268554688 -66.56199645996092 L 111.0739974975586 -66.20300292968749 L 111.13400268554688 -65.84400177001952 L 111.30899810791016 -65.51999664306639 L 111.58100128173828 -65.26300048828124 L 111.92400360107422 -65.0970001220703 M 7.651000022888184 13.270000457763668 L 7.999000072479248 13.324999809265133 L 8.347999572753906 13.270000457763668 L 8.661999702453613 13.109999656677243 L 8.91100025177002 12.859999656677243 L 9.071999549865723 12.545999526977536 L 9.112775802612305 12.28800010681152 L 9.126999855041504 12.19799995422363 L 9.071999549865723 11.848999977111815 L 8.91100025177002 11.534999847412108 L 8.661999702453613 11.284999847412108 L 8.347999572753906 11.124999999999998 L 7.999000072479248 11.069999694824217 L 7.651000022888184 11.124999999999998 L 7.335999965667725 11.284999847412108 L 7.086999893188477 11.534999847412108 L 6.927000045776367 11.848999977111815 L 6.872000217437744 12.19799995422363 L 6.886224269866943 12.28800010681152 L 6.927000045776367 12.545999526977536 L 7.086999893188477 12.859999656677243 L 7.335999965667725 13.109999656677243 L 7.651000022888184 13.270000457763668 M 9.086999893188477 -49.13999938964842 L 9.126999855041504 -49.09999847412108 L 9.336999893188477 -48.88999938964842 L 9.651000022888184 -48.729999542236314 L 9.99899959564209 -48.67499923706053 L 10.347999572753906 -48.729999542236314 L 10.661999702453613 -48.88999938964842 L 10.911999702453613 -49.13999938964842 L 10.91811466217041 -49.15200042724608 L 11.071999549865723 -49.453998565673814 L 11.126999855041504 -49.80199813842772 L 11.071999549865723 -50.151000976562486 L 10.911999702453613 -50.465000152587876 L 10.661999702453613 -50.715000152587876 L 10.347999572753906 -50.874999999999986 L 9.99899959564209 -50.93000030517577 L 9.651000022888184 -50.874999999999986 L 9.336999893188477 -50.715000152587876 L 9.126999855041504 -50.50500106811522 L 9.086999893188477 -50.465000152587876 L 8.927000045776367 -50.151000976562486 L 8.871999740600586 -49.80199813842772 L 8.927000045776367 -49.453998565673814 L 9.08088493347168 -49.15200042724608 L 9.086999893188477 -49.13999938964842 M -44.41299819946289 -49.13999938964842 L -44.16400146484375 -48.88999938964842 L -43.8489990234375 -48.729999542236314 L -43.500999450683594 -48.67499923706053 L -43.17900085449219 -48.72574615478514 L -43.152000427246094 -48.729999542236314 L -42.939998626708984 -48.83802413940428 L -42.8380012512207 -48.88999938964842 L -42.5890007019043 -49.13999938964842 L -42.582847595214844 -49.15200042724608 L -42.428001403808594 -49.453998565673814 L -42.37300109863281 -49.80199813842772 L -42.428001403808594 -50.151000976562486 L -42.5890007019043 -50.465000152587876 L -42.8380012512207 -50.715000152587876 L -42.939998626708984 -50.76697540283202 L -43.152000427246094 -50.874999999999986 L -43.17900085449219 -50.87925338745116 L -43.500999450683594 -50.93000030517577 L -43.8489990234375 -50.874999999999986 L -44.16400146484375 -50.715000152587876 L -44.41299819946289 -50.465000152587876 L -44.573001861572266 -50.151000976562486 L -44.62799835205078 -49.80199813842772 L -44.573001861572266 -49.453998565673814 L -44.41911315917969 -49.15200042724608 L -44.41299819946289 -49.13999938964842 M -41.46500015258789 15.145000457763668 L -41.150001525878906 14.984999656677243 L -40.9010009765625 14.734999656677243 L -40.74100112915039 14.420999526977536 L -40.72732162475586 14.33600044250488 L -40.685001373291016 14.07299995422363 L -40.74100112915039 13.723999977111813 L -40.9010009765625 13.409999847412106 L -41.150001525878906 13.159999847412106 L -41.46500015258789 12.999999999999996 L -41.8129997253418 12.944999694824215 L -42.1609992980957 12.999999999999996 L -42.47600173950195 13.159999847412106 L -42.724998474121094 13.409999847412106 L -42.8849983215332 13.723999977111813 L -42.939998626708984 14.07299995422363 L -42.898433685302734 14.33600044250488 L -42.8849983215332 14.420999526977536 L -42.724998474121094 14.734999656677243 L -42.47600173950195 14.984999656677243 L -42.1609992980957 15.145000457763668 L -41.8129997253418 15.199999809265133 L -41.46500015258789 15.145000457763668 M -42.823001861572266 -61.453998565673814 L -42.81586456298828 -61.43999862670897 L -42.66299819946289 -61.13999938964842 L -42.41299819946289 -60.88999938964842 L -42.37300109863281 -60.86961746215819 L -42.0989990234375 -60.729999542236314 L -41.750999450683594 -60.67499923706053 L -41.402000427246094 -60.729999542236314 L -41.0880012512207 -60.88999938964842 L -40.8380012512207 -61.13999938964842 L -40.68513488769531 -61.43999862670897 L -40.685001373291016 -61.4402618408203 L -40.678001403808594 -61.453998565673814 L -40.62300109863281 -61.80199813842772 L -40.678001403808594 -62.151000976562486 L -40.685001373291016 -62.164737701416 L -40.8380012512207 -62.465000152587876 L -41.0880012512207 -62.715000152587876 L -41.402000427246094 -62.874999999999986 L -41.750999450683594 -62.93000030517577 L -42.0989990234375 -62.874999999999986 L -42.37300109863281 -62.73538208007811 L -42.41299819946289 -62.715000152587876 L -42.66299819946289 -62.465000152587876 L -42.823001861572266 -62.151000976562486 L -42.87799835205078 -61.80199813842772 L -42.823001861572266 -61.453998565673814 M -41.277000427246094 25.270000457763665 L -40.9630012512207 25.110000610351555 L -40.7130012512207 24.860000610351555 L -40.56828689575195 24.57600021362304 L -40.553001403808594 24.545999526977532 L -40.49800109863281 24.197999954223626 L -40.553001403808594 23.84900093078613 L -40.7130012512207 23.534999847412106 L -40.9630012512207 23.284999847412106 L -41.277000427246094 23.124999999999996 L -41.625 23.069999694824215 L -41.9739990234375 23.124999999999996 L -42.28799819946289 23.284999847412106 L -42.53799819946289 23.534999847412106 L -42.698001861572266 23.84900093078613 L -42.75299835205078 24.197999954223626 L -42.698001861572266 24.545999526977532 L -42.68271255493164 24.57600021362304 L -42.53799819946289 24.860000610351555 L -42.28799819946289 25.110000610351555 L -41.9739990234375 25.270000457763665 L -41.625 25.325000762939446 L -41.277000427246094 25.270000457763665 M 16.597999572753906 25.270000457763665 L 16.91200065612793 25.110000610351555 L 17.16200065612793 24.860000610351555 L 17.306713104248047 24.57600021362304 L 17.32200050354004 24.545999526977532 L 17.37700080871582 24.197999954223626 L 17.32200050354004 23.84900093078613 L 17.16200065612793 23.534999847412106 L 16.91200065612793 23.284999847412106 L 16.597999572753906 23.124999999999996 L 16.249000549316406 23.069999694824215 L 15.901000022888184 23.124999999999996 L 15.586999893188477 23.284999847412106 L 15.336999893188477 23.534999847412106 L 15.177000045776367 23.84900093078613 L 15.121999740600586 24.197999954223626 L 15.177000045776367 24.545999526977532 L 15.192286491394043 24.57600021362304 L 15.336999893188477 24.860000610351555 L 15.586999893188477 25.110000610351555 L 15.901000022888184 25.270000457763665 L 16.249000549316406 25.325000762939446 L 16.597999572753906 25.270000457763665 M 16.597999572753906 -60.729999542236314 L 16.91200065612793 -60.88999938964842 L 17.16200065612793 -61.13999938964842 L 17.31486701965332 -61.43999862670897 L 17.32200050354004 -61.453998565673814 L 17.37700080871582 -61.80199813842772 L 17.32200050354004 -62.151000976562486 L 17.16200065612793 -62.465000152587876 L 16.91200065612793 -62.715000152587876 L 16.597999572753906 -62.874999999999986 L 16.249000549316406 -62.93000030517577 L 15.901000022888184 -62.874999999999986 L 15.586999893188477 -62.715000152587876 L 15.336999893188477 -62.465000152587876 L 15.177000045776367 -62.151000976562486 L 15.121999740600586 -61.80199813842772 L 15.177000045776367 -61.453998565673814 L 15.184133529663086 -61.43999862670897 L 15.336999893188477 -61.13999938964842 L 15.586999893188477 -60.88999938964842 L 15.901000022888184 -60.729999542236314 L 16.249000549316406 -60.67499923706053 L 16.597999572753906 -60.729999542236314 M 103.7300033569336 -69.97699737548827 L 103.67400360107422 -69.62799835205077 L 103.7300033569336 -69.27999877929686 L 103.89399719238281 -68.96600341796874 L 104.14900207519531 -68.71600341796874 L 104.447998046875 -68.56696319580077 L 104.47000122070312 -68.55599975585936 L 104.82599639892578 -68.50099945068358 L 105.18199920654297 -68.55599975585936 L 105.50399780273438 -68.71600341796874 L 105.75900268554688 -68.96600341796874 L 105.9219970703125 -69.27999877929686 L 105.97899627685547 -69.62799835205077 L 105.9219970703125 -69.97699737548827 L 105.75900268554688 -70.29100036621092 L 105.50399780273438 -70.54100036621092 L 105.18199920654297 -70.70099639892577 L 104.82599639892578 -70.75599670410155 L 104.47000122070312 -70.70099639892577 L 104.447998046875 -70.69003295898436 L 104.14900207519531 -70.54100036621092 L 103.89399719238281 -70.29100036621092 L 103.7300033569336 -69.97699737548827 M 26.43199920654297 -70.12699890136717 L 26.375999450683594 -69.77799987792967 L 26.43199920654297 -69.43000030517577 L 26.59600067138672 -69.11599731445311 L 26.624000549316406 -69.08854675292967 L 26.85099983215332 -68.86599731445311 L 27.172000885009766 -68.70600128173827 L 27.527999877929688 -68.65100097656249 L 27.885000228881836 -68.70600128173827 L 28.20599937438965 -68.86599731445311 L 28.461000442504883 -69.11599731445311 L 28.625 -69.43000030517577 L 28.65750503540039 -69.63200378417967 L 28.672000885009766 -69.72206878662108 L 28.680999755859375 -69.77799987792967 L 28.672000885009766 -69.83409118652342 L 28.625 -70.12699890136717 L 28.461000442504883 -70.44100189208983 L 28.20599937438965 -70.69100189208983 L 27.885000228881836 -70.85099792480467 L 27.527999877929688 -70.90599822998045 L 27.172000885009766 -70.85099792480467 L 26.85099983215332 -70.69100189208983 L 26.624000549316406 -70.46845245361327 L 26.59600067138672 -70.44100189208983 L 26.43199920654297 -70.12699890136717 M 25.93000030517578 29.003000259399407 L 25.874000549316406 29.351999282836907 L 25.93000030517578 29.700000762939446 L 26.0939998626709 30.013999938964837 L 26.349000930786133 30.263999938964837 L 26.624000549316406 30.401071548461907 L 26.670000076293945 30.423999786376946 L 27.025999069213867 30.479000091552727 L 27.381999969482422 30.423999786376946 L 27.70400047302246 30.263999938964837 L 27.958999633789062 30.013999938964837 L 28.121999740600586 29.700000762939446 L 28.179000854492188 29.351999282836907 L 28.121999740600586 29.003000259399407 L 27.958999633789062 28.688999176025384 L 27.70400047302246 28.438999176025384 L 27.381999969482422 28.278999328613274 L 27.025999069213867 28.224000930786126 L 26.670000076293945 28.278999328613274 L 26.624000549316406 28.301927566528313 L 26.349000930786133 28.438999176025384 L 26.0939998626709 28.688999176025384 L 25.93000030517578 29.003000259399407 M 106.38200378417969 28.281999588012688 L 106.0260009765625 28.226999282836907 L 105.66999816894531 28.281999588012688 L 105.3489990234375 28.441999435424798 L 105.09400177001953 28.691999435424798 L 104.93000030517578 29.00600051879882 L 104.8740005493164 29.354000091552727 L 104.93000030517578 29.702999114990227 L 105.09400177001953 30.01700019836425 L 105.3489990234375 30.26700019836425 L 105.66999816894531 30.42700004577636 L 106.00658416748047 30.479000091552727 L 106.0260009765625 30.48200035095214 L 106.04541778564453 30.479000091552727 L 106.38200378417969 30.42700004577636 L 106.49600219726562 30.37035369873046 L 106.7040023803711 30.26700019836425 L 106.95899963378906 30.01700019836425 L 107.12200164794922 29.702999114990227 L 107.17900085449219 29.354000091552727 L 107.12200164794922 29.00600051879882 L 106.95899963378906 28.691999435424798 L 106.7040023803711 28.441999435424798 L 106.49600219726562 28.338645935058587 L 106.38200378417969 28.281999588012688 M 112.63999938964844 78.27143096923827 L 112.85099792480469 78.30300140380858 L 113.23100280761719 78.24600219726561 L 113.5739974975586 78.08100128173827 L 113.84700012207031 77.82399749755858 L 114.02100372314453 77.49999999999999 L 114.08200073242188 77.14099884033202 L 114.05776977539062 76.9980010986328 L 114.02100372314453 76.78099822998045 L 113.84700012207031 76.45700073242186 L 113.5739974975586 76.19999694824217 L 113.23100280761719 76.03500366210936 L 112.98433685302734 75.9980010986328 L 112.85099792480469 75.97799682617186 L 112.71731567382812 75.9980010986328 L 112.63999938964844 76.00956726074217 L 112.47000122070312 76.03500366210936 L 112.12699890136719 76.19999694824217 L 111.8550033569336 76.45700073242186 L 111.68000030517578 76.78099822998045 L 111.64383697509766 76.9980010986328 L 111.62000274658203 77.14099884033202 L 111.68000030517578 77.49999999999999 L 111.8550033569336 77.82399749755858 L 112.12699890136719 78.08100128173827 L 112.47000122070312 78.24600219726561 L 112.63999938964844 78.27143096923827 M -67.81700134277344 77.30799865722655 L -67.6495590209961 76.9980010986328 L -67.64199829101562 76.98400115966795 L -67.58200073242188 76.62499999999999 L -67.64199829101562 76.26599884033202 L -67.78675079345703 75.9980010986328 L -67.81700134277344 75.94200134277342 L -67.99200439453125 75.77600097656249 L -68.08899688720703 75.68399810791014 L -68.43199920654297 75.5189971923828 L -68.77899932861328 75.46708679199217 L -68.81300354003906 75.46199798583983 L -69.19300079345703 75.5189971923828 L -69.53600311279297 75.68399810791014 L -69.63200378417969 75.77472686767577 L -69.80899810791016 75.94200134277342 L -69.98300170898438 76.26599884033202 L -70.04399871826172 76.62499999999999 L -69.98300170898438 76.98400115966795 L -69.80899810791016 77.30799865722655 L -69.63200378417969 77.4752731323242 L -69.53600311279297 77.56600189208983 L -69.19300079345703 77.73100280761717 L -68.81300354003906 77.78800201416014 L -68.77899932861328 77.7829132080078 L -68.43199920654297 77.73100280761717 L -68.08899688720703 77.56600189208983 L -67.81700134277344 77.30799865722655 M -31.30299949645996 45.06700134277343 L -31.28141212463379 45.05599975585937 L -30.98900032043457 44.90700149536132 L -30.73900032043457 44.658000946044915 L -30.719999313354492 44.620594024658196 L -30.57900047302246 44.342998504638665 L -30.52400016784668 43.99499893188476 L -30.57900047302246 43.64699935913085 L -30.719999313354492 43.36940765380859 L -30.73900032043457 43.33200073242187 L -30.98900032043457 43.08300018310546 L -31.136186599731445 43.00799942016601 L -31.30299949645996 42.92300033569335 L -31.650999069213867 42.86800003051757 L -32 42.92300033569335 L -32.166812896728516 43.00799942016601 L -32.31399917602539 43.08300018310546 L -32.5629997253418 43.33200073242187 L -32.7239990234375 43.64699935913085 L -32.768001556396484 43.92539978027343 L -32.77899932861328 43.99499893188476 L -32.768001556396484 44.06460189819335 L -32.7239990234375 44.342998504638665 L -32.5629997253418 44.658000946044915 L -32.31399917602539 44.90700149536132 L -32.02158737182617 45.05599975585937 L -32 45.06700134277343 L -31.650999069213867 45.123001098632805 L -31.30299949645996 45.06700134277343 M -12.468999862670898 43.52700042724609 L -12.52400016784668 43.87499999999999 L -12.468999862670898 44.2229995727539 L -12.307999610900879 44.53799819946288 L -12.288000106811523 44.557998657226555 L -12.059000015258789 44.78699874877929 L -11.744999885559082 44.9469985961914 L -11.395999908447266 45.002998352050774 L -11.04800033569336 44.9469985961914 L -10.734000205993652 44.78699874877929 L -10.484000205993652 44.53799819946288 L -10.324000358581543 44.2229995727539 L -10.269000053405762 43.87499999999999 L -10.324000358581543 43.52700042724609 L -10.484000205993652 43.2120018005371 L -10.68881893157959 43.00799942016601 L -10.734000205993652 42.963001251220696 L -11.04800033569336 42.80300140380859 L -11.395999908447266 42.748001098632805 L -11.744999885559082 42.80300140380859 L -12.059000015258789 42.963001251220696 L -12.104000091552734 43.00799942016601 L -12.288000106811523 43.19200134277343 L -12.307999610900879 43.2120018005371 L -12.468999862670898 43.52700042724609 M 1.2209999561309814 45.123001098632805 L 1.2209999561309814 65.00299835205077 L 1.2209999561309814 71.00299835205077 L 11.22599983215332 71.00299835205077 L 11.22599983215332 41.25600051879882 L 11.22599983215332 40.998001098632805 L 6.872000217437744 40.998001098632805 L 1.2209999561309814 40.998001098632805 L 1.2209999561309814 41.25600051879882 L 1.2209999561309814 45.002998352050774 L 1.2209999561309814 45.123001098632805 M -11.869999885559082 64.94699859619139 L -11.520999908447266 65.00299835205077 L -11.17300033569336 64.94699859619139 L -10.859000205993652 64.78700256347655 L -10.609000205993652 64.53800201416014 L -10.449000358581543 64.22299957275389 L -10.394000053405762 63.874999999999986 L -10.449000358581543 63.52700042724608 L -10.468809127807617 63.48799896240233 L -10.609000205993652 63.212001800537095 L -10.859000205993652 62.96300125122069 L -11.17300033569336 62.80300140380858 L -11.520999908447266 62.7480010986328 L -11.869999885559082 62.80300140380858 L -12.184000015258789 62.96300125122069 L -12.432999610900879 63.212001800537095 L -12.574067115783691 63.48799896240233 L -12.593999862670898 63.52700042724608 L -12.64900016784668 63.874999999999986 L -12.593999862670898 64.22299957275389 L -12.432999610900879 64.53800201416014 L -12.184000015258789 64.78700256347655 L -11.869999885559082 64.94699859619139 M -32 64.94699859619139 L -32.31399917602539 64.78700256347655 L -32.5629997253418 64.53800201416014 L -32.7239990234375 64.22299957275389 L -32.77899932861328 63.874999999999986 L -32.7239990234375 63.52700042724608 L -32.70406723022461 63.48799896240233 L -32.5629997253418 63.212001800537095 L -32.31399917602539 62.96300125122069 L -32 62.80300140380858 L -31.650999069213867 62.7480010986328 L -31.30299949645996 62.80300140380858 L -30.98900032043457 62.96300125122069 L -30.73900032043457 63.212001800537095 L -30.59881019592285 63.48799896240233 L -30.57900047302246 63.52700042724608 L -30.52400016784668 63.874999999999986 L -30.57900047302246 64.22299957275389 L -30.73900032043457 64.53800201416014 L -30.98900032043457 64.78700256347655 L -31.30299949645996 64.94699859619139 L -31.650999069213867 65.00299835205077 L -32 64.94699859619139 M -67.58200073242188 60.037998199462876 L -67.12899780273438 60.491001129150376 L -66.01300048828125 61.060001373291 L -64.7760009765625 61.256000518798814 L -63.53900146484375 61.060001373291 L -62.42399978637695 60.491001129150376 L -61.53799819946289 59.60599899291991 L -60.970001220703125 58.49000167846678 L -60.78841781616211 57.34400177001952 L -60.77399826049805 57.25299835205077 L -60.970001220703125 56.01599884033202 L -61.53799819946289 54.901000976562486 L -62.42399978637695 54.01499938964842 L -63.53900146484375 53.44699859619139 L -64.7760009765625 53.25099945068358 L -66.01300048828125 53.44699859619139 L -67.12899780273438 54.01499938964842 L -67.58200073242188 54.46851348876952 L -68.01399993896484 54.901000976562486 L -68.58300018310547 56.01599884033202 L -68.77899932861328 57.25299835205077 L -68.76457977294922 57.34400177001952 L -68.58300018310547 58.49000167846678 L -68.01399993896484 59.60599899291991 L -67.58200073242188 60.037998199462876 M 25.23900032043457 85.0709991455078 L 25.55299949645996 84.91100311279295 L 25.80299949645996 84.66100311279295 L 25.96299934387207 84.3470001220703 L 26.01799964904785 83.9980010986328 L 26.01325798034668 83.96800231933592 L 25.96299934387207 83.65000152587889 L 25.80299949645996 83.33599853515624 L 25.55299949645996 83.08599853515624 L 25.23900032043457 82.92600250244139 L 24.889999389648438 82.87100219726561 L 24.54199981689453 82.92600250244139 L 24.22800064086914 83.08599853515624 L 23.97800064086914 83.33599853515624 L 23.81800079345703 83.65000152587889 L 23.767742156982422 83.96800231933592 L 23.76300048828125 83.9980010986328 L 23.81800079345703 84.3470001220703 L 23.97800064086914 84.66100311279295 L 24.22800064086914 84.91100311279295 L 24.54199981689453 85.0709991455078 L 24.889999389648438 85.12599945068358 L 25.23900032043457 85.0709991455078 M -7.261000156402588 85.0709991455078 L -6.947000026702881 84.91100311279295 L -6.697000026702881 84.66100311279295 L -6.5370001792907715 84.3470001220703 L -6.48199987411499 83.9980010986328 L -6.486741542816162 83.96800231933592 L -6.5370001792907715 83.65000152587889 L -6.697000026702881 83.33599853515624 L -6.947000026702881 83.08599853515624 L -7.261000156402588 82.92600250244139 L -7.610000133514404 82.87100219726561 L -7.958000183105469 82.92600250244139 L -8.272000312805176 83.08599853515624 L -8.522000312805176 83.33599853515624 L -8.682000160217285 83.65000152587889 L -8.732258796691895 83.96800231933592 L -8.737000465393066 83.9980010986328 L -8.682000160217285 84.3470001220703 L -8.522000312805176 84.66100311279295 L -8.272000312805176 84.91100311279295 L -7.958000183105469 85.0709991455078 L -7.610000133514404 85.12599945068358 L -7.261000156402588 85.0709991455078 M -65.77400207519531 -57.00199890136717 L -68.77899932861328 -57.00199890136717 L -69.63400268554688 -57.00199890136717 L -70.7750015258789 -57.00199890136717 L -75.77899932861328 -57.00199890136717 L -75.77899932861328 -26.99699974060058 L -70.7750015258789 -26.99699974060058 L -68.77899932861328 -26.99699974060058 L -65.77400207519531 -26.99699974060058 L -65.77400207519531 -57.00199890136717 M -68.77899932861328 -16.002000808715817 L -70.7750015258789 -16.002000808715817 L -70.7750015258789 24.003000259399407 L -70.04399871826172 24.003000259399407 L -68.77899932861328 24.003000259399407 L -65.7699966430664 24.003000259399407 L -65.7699966430664 -16.002000808715817 L -65.77400207519531 -16.002000808715817 L -68.77899932861328 -16.002000808715817 M 111.0739974975586 -16.002000808715817 L 110.22100067138672 -16.002000808715817 L 110.22100067138672 24.003000259399407 L 115.22599792480469 24.003000259399407 L 115.22599792480469 -16.002000808715817 L 111.0739974975586 -16.002000808715817 M -44.62799835205078 40.99300003051757 L -53.183998107910156 40.99300003051757 L -53.183998107910156 41.25600051879882 L -53.183998107910156 61.256000518798814 L -53.183998107910156 70.9980010986328 L -43.17900085449219 70.9980010986328 L -43.17900085449219 41.25600051879882 L -43.17900085449219 40.99300003051757 L -44.62799835205078 40.99300003051757 M 32.22600173950195 -22.302999496459957 L 26.375999450683594 -22.302999496459957 L 22.22100067138672 -22.302999496459957 L 22.22100067138672 17.701999664306637 L 26.375999450683594 17.701999664306637 L 32.22600173950195 17.701999664306637 L 32.22600173950195 -22.302999496459957 M 103.34100341796875 76.9980010986328 L 63.33599853515625 76.9980010986328 L 63.33599853515625 82.00299835205077 L 103.34100341796875 82.00299835205077 L 103.34100341796875 76.9980010986328 M 57.22600173950195 82.00299835205077 L 57.22600173950195 76.9980010986328 L 57.22600173950195 75.9980010986328 L 37.22100067138672 75.9980010986328 L 37.22100067138672 76.9980010986328 L 37.22100067138672 82.00299835205077 L 37.22100067138672 85.12599945068358 L 37.22100067138672 86.00299835205077 L 57.22600173950195 86.00299835205077 L 57.22600173950195 82.00299835205077 M -18.77400016784668 76.9980010986328 L -58.77899932861328 76.9980010986328 L -58.77899932861328 77.78800201416014 L -58.77899932861328 82.00299835205077 L -18.77400016784668 82.00299835205077 L -18.77400016784668 76.9980010986328 M -31.650999069213867 65.00299835205077 L -30.52400016784668 65.00299835205077 L -30.52400016784668 63.874999999999986 L -30.52400016784668 62.7480010986328 L -31.650999069213867 62.7480010986328 L -32.77899932861328 62.7480010986328 L -32.77899932861328 63.874999999999986 L -32.77899932861328 65.00299835205077 L -32.60072326660156 65.00299835205077 z" fill="none" stroke="rgb(255,0,0)" stroke-width="0.001mm" />
</svg>